<?xml version="1.0" encoding="utf-8"?>
<!-- Generator: Adobe Illustrator 27.5.0, SVG Export Plug-In . SVG Version: 6.00 Build 0)  -->
<svg version="1.1" xmlns="http://www.w3.org/2000/svg" xmlns:xlink="http://www.w3.org/1999/xlink" x="0px" y="0px"
	 viewBox="0 0 500 500" style="enable-background:new 0 0 500 500;" xml:space="preserve">
<g id="Background_Simple">
	<g>
		<path style="fill:#92E3A9;" d="M475.79,277.045c-13.494,40.9-42.565,85.725-85.346,100.317
			c-64.641,22.054-70.416,75.069-187.736,74.707c-18.292-0.055-35.271-1.97-50.936-5.47c-8.421-1.88-16.465-4.23-24.12-7.001
			c-69.499-25.07-107.551-84.691-112.981-148.401C7.516,207.403,64.54,165.128,101.7,140.229
			c37.16-24.899,79.531-117.452,194.867-118.002c17.585-0.076,35.199,1.647,52.355,5.593c39.163,8.991,79.458,30.67,103.664,63.702
			c1.817,2.482,3.557,5.026,5.23,7.622C490.464,149.943,494.191,221.286,475.79,277.045z"/>
		<path style="opacity:0.7;fill:#FFFFFF;" d="M475.79,277.045c-13.494,40.9-42.565,85.725-85.346,100.317
			c-64.641,22.054-70.416,75.069-187.736,74.707c-18.292-0.055-35.271-1.97-50.936-5.47c-8.421-1.88-16.465-4.23-24.12-7.001
			c-69.499-25.07-107.551-84.691-112.981-148.401C7.516,207.403,64.54,165.128,101.7,140.229
			c37.16-24.899,79.531-117.452,194.867-118.002c17.585-0.076,35.199,1.647,52.355,5.593c39.163,8.991,79.458,30.67,103.664,63.702
			c1.817,2.482,3.557,5.026,5.23,7.622C490.464,149.943,494.191,221.286,475.79,277.045z"/>
	</g>
</g>
<g id="Floor">
	
		<line style="fill:none;stroke:#263238;stroke-linecap:round;stroke-linejoin:round;stroke-miterlimit:10;" x1="30.31" y1="457.839" x2="475.847" y2="457.839"/>
</g>
<g id="Graphics_1_">
	<g>
		<path style="fill:none;stroke:#263238;stroke-linecap:round;stroke-linejoin:round;stroke-miterlimit:10;" d="M96.726,158.821
			c0,7.582-3.548,14.345-9.094,18.687c-4.035,3.189-9.145,5.085-14.678,5.085c-5.546,0-10.656-1.896-14.691-5.085
			c-5.546-4.342-9.094-11.104-9.094-18.687c0-13.141,10.643-23.784,23.784-23.784C86.083,135.036,96.726,145.68,96.726,158.821z"/>
		<g>
			
				<ellipse transform="matrix(0.8507 -0.5257 0.5257 0.8507 -70.6429 61.5156)" style="fill:none;stroke:#263238;stroke-linecap:round;stroke-linejoin:round;stroke-miterlimit:10;" cx="72.95" cy="155.094" rx="9.929" ry="9.929"/>
			<path style="fill:none;stroke:#263238;stroke-linecap:round;stroke-linejoin:round;stroke-miterlimit:10;" d="M87.632,177.507
				c-4.035,3.189-9.145,5.085-14.678,5.085c-5.546,0-10.656-1.896-14.691-5.085c1.473-6.75,7.493-11.809,14.691-11.809
				C80.14,165.699,86.159,170.758,87.632,177.507z"/>
		</g>
	</g>
	<g>
		<path style="fill:none;stroke:#263238;stroke-linecap:round;stroke-linejoin:round;stroke-miterlimit:10;" d="M464.475,404.47
			c0,7.582-3.548,14.345-9.094,18.687c-4.034,3.189-9.145,5.085-14.678,5.085c-5.546,0-10.656-1.896-14.691-5.085
			c-5.546-4.342-9.094-11.104-9.094-18.687c0-13.141,10.643-23.784,23.784-23.784C453.832,380.685,464.475,391.329,464.475,404.47z"
			/>
		<g>
			
				<ellipse transform="matrix(0.987 -0.1607 0.1607 0.987 -58.665 76.0183)" style="fill:none;stroke:#263238;stroke-linecap:round;stroke-linejoin:round;stroke-miterlimit:10;" cx="440.7" cy="400.743" rx="9.929" ry="9.929"/>
			<path style="fill:none;stroke:#263238;stroke-linecap:round;stroke-linejoin:round;stroke-miterlimit:10;" d="M455.382,423.156
				c-4.034,3.189-9.145,5.085-14.678,5.085c-5.546,0-10.656-1.896-14.691-5.085c1.473-6.75,7.493-11.809,14.691-11.809
				C447.889,411.348,453.909,416.407,455.382,423.156z"/>
		</g>
	</g>
	<g>
		<path style="fill:#263238;" d="M41.819,209.72l-1.207-0.728l1.513-2.125l-2.259-0.861l0.498-1.301l2.163,1.148l-0.23-2.642h1.551
			l-0.249,2.642l2.182-1.148l0.478,1.301l-2.259,0.882l1.531,2.105l-1.244,0.728l-1.225-2.393L41.819,209.72z"/>
		<path style="fill:#263238;" d="M49.438,209.72l-1.207-0.728l1.513-2.125l-2.259-0.861l0.498-1.301l2.163,1.148l-0.23-2.642h1.551
			l-0.249,2.642l2.183-1.148l0.478,1.301l-2.259,0.882l1.531,2.105l-1.244,0.728l-1.225-2.393L49.438,209.72z"/>
		<path style="fill:#263238;" d="M57.057,209.72l-1.207-0.728l1.513-2.125l-2.259-0.861l0.498-1.301l2.163,1.148l-0.23-2.642h1.551
			l-0.249,2.642l2.183-1.148l0.478,1.301l-2.259,0.882l1.531,2.105l-1.244,0.728l-1.225-2.393L57.057,209.72z"/>
		<path style="fill:#263238;" d="M64.675,209.72l-1.207-0.728l1.513-2.125l-2.259-0.861l0.498-1.301l2.163,1.148l-0.23-2.642h1.551
			l-0.249,2.642l2.182-1.148l0.478,1.301l-2.259,0.882l1.531,2.105l-1.244,0.728l-1.225-2.393L64.675,209.72z"/>
		<path style="fill:#263238;" d="M72.294,209.72l-1.207-0.728l1.513-2.125l-2.259-0.861l0.498-1.301l2.163,1.148l-0.23-2.642h1.551
			l-0.249,2.642l2.182-1.148l0.478,1.301l-2.259,0.882l1.531,2.105l-1.244,0.728l-1.225-2.393L72.294,209.72z"/>
		<path style="fill:#263238;" d="M79.913,209.72l-1.207-0.728l1.513-2.125l-2.259-0.861l0.498-1.301l2.163,1.148l-0.23-2.642h1.551
			l-0.249,2.642l2.182-1.148l0.478,1.301l-2.259,0.882l1.531,2.105l-1.244,0.728l-1.225-2.393L79.913,209.72z"/>
		<path style="fill:#263238;" d="M87.532,209.72l-1.207-0.728l1.513-2.125l-2.259-0.861l0.498-1.301l2.163,1.148l-0.23-2.642h1.551
			l-0.249,2.642l2.182-1.148l0.478,1.301l-2.259,0.882l1.531,2.105l-1.244,0.728l-1.225-2.393L87.532,209.72z"/>
		<path style="fill:#263238;" d="M95.15,209.72l-1.207-0.728l1.513-2.125l-2.259-0.861l0.498-1.301l2.163,1.148l-0.23-2.642h1.551
			l-0.249,2.642l2.182-1.148l0.478,1.301l-2.259,0.882l1.531,2.105l-1.244,0.728l-1.225-2.393L95.15,209.72z"/>
		<path style="fill:#263238;" d="M102.769,209.72l-1.206-0.728l1.513-2.125l-2.259-0.861l0.498-1.301l2.163,1.148l-0.23-2.642h1.551
			l-0.249,2.642l2.183-1.148l0.478,1.301l-2.259,0.882l1.531,2.105l-1.244,0.728l-1.225-2.393L102.769,209.72z"/>
	</g>
	<g>
		<path style="fill:#263238;" d="M170.806,46.753l-1.207-0.728l1.513-2.125l-2.259-0.861l0.498-1.301l2.163,1.148l-0.23-2.642h1.551
			l-0.249,2.642l2.182-1.148l0.478,1.301l-2.259,0.882l1.531,2.105l-1.244,0.728l-1.225-2.393L170.806,46.753z"/>
		<path style="fill:#263238;" d="M178.425,46.753l-1.206-0.728l1.513-2.125l-2.259-0.861l0.498-1.301l2.163,1.148l-0.23-2.642h1.551
			l-0.249,2.642l2.182-1.148l0.478,1.301l-2.259,0.882l1.531,2.105l-1.244,0.728l-1.225-2.393L178.425,46.753z"/>
		<path style="fill:#263238;" d="M186.043,46.753l-1.206-0.728l1.513-2.125l-2.259-0.861l0.498-1.301l2.163,1.148l-0.23-2.642h1.551
			l-0.249,2.642l2.183-1.148l0.478,1.301l-2.259,0.882l1.531,2.105l-1.244,0.728l-1.225-2.393L186.043,46.753z"/>
		<path style="fill:#263238;" d="M193.662,46.753l-1.206-0.728l1.513-2.125l-2.259-0.861l0.498-1.301l2.163,1.148l-0.23-2.642h1.551
			l-0.249,2.642l2.183-1.148l0.478,1.301l-2.259,0.882l1.531,2.105l-1.244,0.728l-1.225-2.393L193.662,46.753z"/>
		<path style="fill:#263238;" d="M201.28,46.753l-1.207-0.728l1.513-2.125l-2.259-0.861l0.498-1.301l2.163,1.148l-0.23-2.642h1.551
			l-0.249,2.642l2.183-1.148l0.478,1.301l-2.259,0.882l1.531,2.105l-1.244,0.728l-1.225-2.393L201.28,46.753z"/>
		<path style="fill:#263238;" d="M208.9,46.753l-1.207-0.728l1.513-2.125l-2.259-0.861l0.498-1.301l2.163,1.148l-0.23-2.642h1.551
			l-0.249,2.642l2.183-1.148l0.478,1.301l-2.259,0.882l1.531,2.105l-1.244,0.728l-1.225-2.393L208.9,46.753z"/>
		<path style="fill:#263238;" d="M216.518,46.753l-1.206-0.728l1.513-2.125l-2.259-0.861l0.498-1.301l2.163,1.148l-0.23-2.642h1.551
			l-0.249,2.642l2.183-1.148l0.478,1.301l-2.259,0.882l1.531,2.105l-1.244,0.728l-1.225-2.393L216.518,46.753z"/>
		<path style="fill:#263238;" d="M224.137,46.753l-1.206-0.728l1.513-2.125l-2.259-0.861l0.498-1.301l2.163,1.148l-0.23-2.642h1.551
			l-0.249,2.642l2.182-1.148l0.478,1.301l-2.259,0.882l1.531,2.105l-1.244,0.728l-1.225-2.393L224.137,46.753z"/>
		<path style="fill:#263238;" d="M231.755,46.753l-1.207-0.728l1.513-2.125l-2.259-0.861l0.498-1.301l2.163,1.148l-0.23-2.642h1.551
			l-0.249,2.642l2.182-1.148l0.478,1.301l-2.259,0.882l1.531,2.105l-1.244,0.728l-1.225-2.393L231.755,46.753z"/>
	</g>
	<g>
		<path style="fill:#263238;" d="M403.834,146.727L402.628,146l1.513-2.125l-2.259-0.861l0.498-1.301l2.163,1.148l-0.23-2.642h1.551
			l-0.249,2.642l2.182-1.148l0.478,1.301l-2.259,0.882l1.531,2.105l-1.244,0.727l-1.225-2.393L403.834,146.727z"/>
		<path style="fill:#263238;" d="M411.453,146.727L410.246,146l1.513-2.125l-2.259-0.861l0.498-1.301l2.163,1.148l-0.23-2.642h1.551
			l-0.249,2.642l2.182-1.148l0.478,1.301l-2.259,0.882l1.531,2.105l-1.244,0.727l-1.225-2.393L411.453,146.727z"/>
		<path style="fill:#263238;" d="M419.072,146.727L417.865,146l1.513-2.125l-2.259-0.861l0.498-1.301l2.163,1.148l-0.23-2.642h1.551
			l-0.249,2.642l2.182-1.148l0.478,1.301l-2.259,0.882l1.531,2.105l-1.244,0.727l-1.225-2.393L419.072,146.727z"/>
		<path style="fill:#263238;" d="M426.69,146.727L425.483,146l1.513-2.125l-2.259-0.861l0.498-1.301l2.163,1.148l-0.23-2.642h1.551
			l-0.249,2.642l2.183-1.148l0.478,1.301l-2.259,0.882l1.531,2.105l-1.244,0.727l-1.225-2.393L426.69,146.727z"/>
		<path style="fill:#263238;" d="M434.309,146.727L433.102,146l1.513-2.125l-2.259-0.861l0.498-1.301l2.163,1.148l-0.23-2.642h1.551
			l-0.249,2.642l2.182-1.148l0.478,1.301l-2.259,0.882l1.531,2.105l-1.244,0.727l-1.225-2.393L434.309,146.727z"/>
		<path style="fill:#263238;" d="M441.928,146.727L440.721,146l1.513-2.125l-2.259-0.861l0.498-1.301l2.163,1.148l-0.23-2.642h1.551
			l-0.249,2.642l2.182-1.148l0.478,1.301l-2.259,0.882l1.531,2.105l-1.244,0.727l-1.225-2.393L441.928,146.727z"/>
		<path style="fill:#263238;" d="M449.546,146.727L448.34,146l1.513-2.125l-2.259-0.861l0.498-1.301l2.163,1.148l-0.23-2.642h1.551
			l-0.249,2.642l2.182-1.148l0.478,1.301l-2.259,0.882l1.531,2.105l-1.244,0.727l-1.225-2.393L449.546,146.727z"/>
		<path style="fill:#263238;" d="M457.165,146.727L455.958,146l1.513-2.125l-2.259-0.861l0.498-1.301l2.163,1.148l-0.23-2.642h1.551
			l-0.249,2.642l2.182-1.148l0.478,1.301l-2.259,0.882l1.531,2.105l-1.244,0.727l-1.225-2.393L457.165,146.727z"/>
		<path style="fill:#263238;" d="M464.783,146.727L463.577,146l1.513-2.125l-2.259-0.861l0.498-1.301l2.163,1.148l-0.23-2.642h1.551
			l-0.249,2.642l2.183-1.148l0.478,1.301l-2.259,0.882l1.531,2.105l-1.244,0.727l-1.225-2.393L464.783,146.727z"/>
	</g>
	<g>
		
			<rect x="415.603" y="85.597" style="fill:none;stroke:#263238;stroke-linecap:round;stroke-linejoin:round;stroke-miterlimit:10;" width="39.165" height="38.31"/>
		<g>
			<path style="fill:none;stroke:#263238;stroke-miterlimit:10;" d="M422.791,85.612v-8.817c0-6.834,5.56-12.394,12.395-12.394
				c6.834,0,12.393,5.56,12.393,12.394v8.817h5.7v-8.817c0-9.977-8.117-18.094-18.093-18.094c-9.978,0-18.094,8.117-18.094,18.094
				v8.817H422.791z"/>
		</g>
		<path style="fill:none;stroke:#263238;stroke-linecap:round;stroke-linejoin:round;stroke-miterlimit:10;" d="M439.69,100.451
			c0-2.488-2.017-4.505-4.505-4.505c-2.488,0-4.505,2.017-4.505,4.505c0,1.909,1.191,3.531,2.867,4.187v8.92h3.277v-8.92
			C438.499,103.982,439.69,102.36,439.69,100.451z"/>
	</g>
	<g>
		
			<rect x="52.502" y="401.584" style="fill:none;stroke:#263238;stroke-linecap:round;stroke-linejoin:round;stroke-miterlimit:10;" width="39.165" height="38.31"/>
		<g>
			<path style="fill:none;stroke:#263238;stroke-miterlimit:10;" d="M59.69,401.599v-8.817c0-6.834,5.56-12.394,12.394-12.394
				c6.834,0,12.394,5.56,12.394,12.394v8.817h5.7v-8.817c0-9.977-8.117-18.094-18.093-18.094c-9.978,0-18.094,8.117-18.094,18.094
				v8.817H59.69z"/>
		</g>
		<path style="fill:none;stroke:#263238;stroke-linecap:round;stroke-linejoin:round;stroke-miterlimit:10;" d="M76.59,416.438
			c0-2.488-2.017-4.505-4.505-4.505c-2.488,0-4.505,2.017-4.505,4.505c0,1.909,1.191,3.531,2.867,4.187v8.919h3.277v-8.919
			C75.399,419.969,76.59,418.347,76.59,416.438z"/>
	</g>
</g>
<g id="Plants">
	<g>
		<path style="fill:#919191;" d="M39.584,352.255c3.527-1.922,8.886-9.159,8.89-9.164c0.055-0.075-5.843-2.084-6.229-2.169
			c-4.475-0.973-13.695-0.221-16.269,4.215c-1.854,3.196-0.207,7.051,3.023,8.512C32.299,355.142,36.58,353.892,39.584,352.255z"/>
		<path style="fill:#919191;" d="M62.09,365.788c2.78-2.675,5.866-10.451,6.108-11.071c4.331,1.755,8.917,3.205,13.639,4.417
			c2.699,0.696,5.439,1.312,8.194,1.896c-1.297-0.079-2.458-0.141-2.621-0.132c-4.574,0.244-13.267,3.404-14.577,8.362
			c-0.945,3.573,1.661,6.855,5.163,7.412c3.575,0.568,7.376-1.769,9.84-4.14c2.502-2.406,5.265-8.983,5.973-10.734
			c1.059,0.213,2.114,0.437,3.174,0.646c5.086,1.003,10.166,1.98,15.119,3.092c1.746,0.391,3.451,0.841,5.158,1.284
			c-1.153-0.069-2.124-0.118-2.273-0.11c-4.573,0.244-13.267,3.404-14.577,8.362c-0.945,3.573,1.662,6.856,5.163,7.412
			c3.577,0.567,7.376-1.769,9.84-4.141c2.388-2.296,4.993-8.344,5.844-10.419c1.735,0.507,3.473,1.011,5.132,1.58
			c1.124,0.414,2.234,0.734,3.339,1.214c1.105,0.451,2.197,0.898,3.28,1.34c2.053,0.928,4.178,1.873,6.159,2.829
			c1.383,0.655,2.688,1.304,4.005,1.954c-1.733-0.41-5.143-1.14-5.435-1.169c-4.557-0.453-13.628,1.354-15.676,6.057
			c-1.474,3.388,0.604,7.028,3.982,8.107c3.448,1.103,7.557-0.63,10.353-2.601c3.078-2.171,7.172-9.087,7.678-9.955
			c2.175,1.083,4.281,2.158,6.251,3.203c4.356,2.298,8.186,4.454,11.394,6.323l2.061-2.656c-3.367-1.871-7.42-4.047-12.065-6.368
			c-2.204-1.109-4.582-2.25-7.035-3.398c0.179-0.62,1.178-4.15,1.695-7.563c3.855-0.331,10.607-3.605,11.475-4.034
			c1.218,2.103,2.381,4.161,3.447,6.12c2.242,4.094,4.158,7.817,5.753,11.029l2.229-2.872c-1.529-2.884-3.304-6.127-5.33-9.644
			c-1.227-2.141-2.581-4.405-3.993-6.716c0.751-0.638,6.857-5.892,8.456-9.307c1.449-3.098,2.436-7.448,0.746-10.651
			c-1.654-3.135-5.603-4.542-8.681-2.496c-4.271,2.839-4.459,12.087-3.214,16.495c0.073,0.26,1.184,2.992,1.914,4.704
			c-0.582-0.941-1.137-1.861-1.748-2.823c-1.194-1.911-2.444-3.781-3.78-5.798c-0.679-0.952-1.366-1.913-2.059-2.884
			c-0.668-0.977-1.496-1.925-2.247-2.9c-1.788-2.225-3.708-4.391-5.69-6.532c1.669-1.051,7.545-4.867,9.456-7.723
			c1.903-2.843,3.537-6.992,2.35-10.414c-1.16-3.35-4.85-5.34-8.202-3.785c-4.652,2.16-6.239,11.274-5.676,15.819
			c0.034,0.283,0.805,3.499,1.262,5.257c-1.202-1.277-2.395-2.558-3.653-3.81c-3.63-3.617-7.418-7.164-11.18-10.72
			c-1.154-1.089-2.289-2.187-3.431-3.283c0.599-0.368,7.68-4.752,9.821-7.951c1.903-2.842,3.537-6.993,2.351-10.414
			c-1.16-3.349-4.851-5.34-8.202-3.783c-4.652,2.16-6.238,11.272-5.676,15.818c0.042,0.342,1.157,4.969,1.498,6.131
			c-2.513-2.414-4.994-4.841-7.343-7.335c-3.246-3.435-6.241-6.986-8.888-10.64c0.279-0.17,7.69-4.714,9.883-7.989
			c1.903-2.843,3.537-6.994,2.351-10.415c-1.16-3.35-4.85-5.34-8.202-3.783c-4.652,2.16-6.238,11.272-5.676,15.818
			c0.045,0.356,1.246,5.333,1.528,6.22c-0.156-0.218-0.343-0.426-0.497-0.645c-2.777-3.937-4.972-8.099-6.836-12.097
			c-1.088-2.321-1.998-4.6-2.834-6.837c1.468-0.705,8.137-3.999,10.436-6.729c2.204-2.617,4.284-6.563,3.481-10.092
			c-0.786-3.457-4.235-5.84-7.737-4.662c-4.862,1.637-7.439,10.52-7.379,15.099c0.003,0.249,0.317,2.777,0.571,4.615
			c-0.362-1.016-0.755-2.056-1.081-3.036c-1.237-3.676-2.144-7.118-2.922-10.174c-0.428-1.741-0.782-3.323-1.096-4.808
			c1.079-1.442,5.354-7.311,6.123-10.73c0.749-3.337,0.778-7.798-1.562-10.561c-2.291-2.706-6.451-3.232-9.015-0.572
			c-3.561,3.691-1.755,12.763,0.408,16.801c0.188,0.349,3.738,5.469,3.795,5.395c0,0,0.053-0.07,0.066-0.087
			c0.273,1.435,0.584,2.969,0.957,4.639c0.713,3.079,1.547,6.55,2.709,10.266c1.152,3.718,2.508,7.725,4.316,11.816
			c1.808,4.104,3.92,8.328,6.658,12.398c0.03,0.046,0.069,0.09,0.1,0.136c-1.171-0.942-4.532-3.467-4.812-3.631
			c-3.949-2.319-12.943-4.481-16.773-1.068c-2.758,2.459-2.396,6.635,0.218,9.03c2.67,2.445,7.127,2.593,10.492,1.974
			c3.794-0.697,10.657-5.481,11.202-5.863c2.643,3.853,5.669,7.592,8.938,11.208c1.868,2.069,3.813,4.095,5.789,6.102
			c-1.039-0.782-1.973-1.474-2.114-1.556c-3.95-2.32-12.942-4.481-16.772-1.068c-2.759,2.459-2.396,6.635,0.218,9.03
			c2.669,2.446,7.127,2.594,10.491,1.975c3.414-0.628,9.347-4.588,10.903-5.657c0.766,0.762,1.523,1.531,2.292,2.29
			c3.689,3.642,7.387,7.259,10.904,10.919c1.241,1.289,2.414,2.604,3.593,3.916c-0.922-0.693-1.706-1.269-1.834-1.345
			c-3.95-2.319-12.943-4.48-16.772-1.068c-2.758,2.46-2.397,6.636,0.218,9.031c2.668,2.445,7.127,2.593,10.492,1.974
			c3.257-0.598,8.767-4.205,10.622-5.467c1.167,1.379,2.339,2.759,3.408,4.149c0.708,0.966,1.457,1.846,2.115,2.855
			c0.671,0.984,1.338,1.961,1.997,2.926c1.2,1.908,2.451,3.868,3.576,5.757c0.792,1.309,1.522,2.571,2.262,3.839
			c-1.22-1.297-3.661-3.787-3.888-3.972c-2.361-1.921-6.93-4.1-10.995-4.532c-0.347-0.286-0.716-0.54-1.112-0.757
			c-3.11-1.702-7.18-0.698-8.618,2.707c-1.996,4.724,2.95,12.542,6.419,15.531c0.205,0.176,2.639,1.842,4.192,2.868
			c-1.005-0.464-1.975-0.926-3.015-1.39c-2.05-0.933-4.124-1.804-6.352-2.751c-1.092-0.419-2.194-0.841-3.309-1.268
			c-1.095-0.447-2.309-0.78-3.473-1.179c-2.718-0.868-5.516-1.617-8.35-2.308c0.813-1.798,3.608-8.222,3.626-11.658
			c0.019-3.421-0.908-7.784-3.784-9.982c-2.816-2.154-6.991-1.779-8.928,1.368c-2.689,4.368,1.015,12.844,3.991,16.325
			c0.186,0.217,2.602,2.475,3.954,3.689c-1.707-0.402-3.409-0.812-5.149-1.163c-5.023-1.014-10.139-1.884-15.239-2.774
			c-1.563-0.272-3.116-0.561-4.672-0.845c0.296-0.637,3.783-8.201,3.805-12.05c0.019-3.421-0.908-7.783-3.784-9.983
			c-2.816-2.153-6.991-1.778-8.928,1.369c-2.689,4.368,1.015,12.844,3.991,16.325c0.225,0.262,3.706,3.506,4.632,4.287
			c-3.426-0.626-6.836-1.283-10.171-2.066c-4.603-1.075-9.059-2.384-13.282-3.971c0.139-0.297,3.813-8.175,3.835-12.117
			c0.019-3.421-0.908-7.783-3.784-9.982c-2.816-2.154-6.991-1.778-8.928,1.369c-2.689,4.367,1.016,12.844,3.992,16.324
			c0.234,0.274,3.982,3.761,4.706,4.344c-0.251-0.094-0.521-0.165-0.77-0.262c-4.488-1.753-8.615-4.014-12.376-6.32
			c-2.187-1.335-4.203-2.735-6.135-4.139c0.835-1.397,4.58-7.825,4.992-11.37c0.394-3.399-0.048-7.836-2.665-10.338
			c-2.563-2.449-6.754-2.535-9.025,0.38c-3.153,4.046-0.401,12.878,2.175,16.664c0.14,0.207,1.795,2.142,3.022,3.535
			c-0.862-0.648-1.764-1.3-2.577-1.936c-3.059-2.384-5.715-4.754-8.049-6.873c-1.318-1.216-2.485-2.341-3.565-3.406
			c0.103-1.798,0.432-9.051-0.813-12.327c-1.216-3.198-3.653-6.932-7.129-7.947c-3.403-0.994-7.162,0.863-7.834,4.495
			c-0.933,5.044,5.579,11.614,9.609,13.789c0.349,0.187,6.134,2.499,6.142,2.406c0,0,0.005-0.088,0.006-0.108
			c1.02,1.045,2.126,2.154,3.358,3.34c2.293,2.174,4.903,4.61,7.923,7.069c3.012,2.465,6.353,5.059,10.119,7.474
			c3.772,2.424,7.863,4.784,12.393,6.668c0.051,0.021,0.108,0.037,0.159,0.058c-1.497-0.14-5.693-0.39-6.017-0.372
			c-4.573,0.243-13.267,3.403-14.578,8.361c-0.944,3.573,1.662,6.856,5.164,7.412C55.827,370.495,59.625,368.159,62.09,365.788z"/>
		<path style="fill:#919191;" d="M96.976,281.531c0.088-0.032-3.723-4.962-3.999-5.245c-3.197-3.28-11.301-7.739-15.896-5.458
			c-3.309,1.642-4.063,5.767-2.173,8.767c1.929,3.064,6.189,4.384,9.597,4.675C88.508,284.614,96.969,281.534,96.976,281.531z"/>
	</g>
	<g>
		<path style="fill:#919191;" d="M460.287,352.255c-3.527-1.922-8.886-9.159-8.89-9.164c-0.055-0.075,5.842-2.084,6.229-2.169
			c4.475-0.973,13.695-0.221,16.269,4.215c1.853,3.196,0.207,7.051-3.023,8.512C467.572,355.142,463.292,353.892,460.287,352.255z"
			/>
		<path style="fill:#919191;" d="M437.781,365.788c-2.78-2.675-5.866-10.451-6.109-11.071c-4.331,1.755-8.917,3.205-13.639,4.417
			c-2.699,0.696-5.439,1.312-8.194,1.896c1.297-0.079,2.458-0.141,2.621-0.132c4.574,0.244,13.267,3.404,14.577,8.362
			c0.945,3.573-1.661,6.855-5.163,7.412c-3.575,0.568-7.376-1.769-9.84-4.14c-2.502-2.406-5.265-8.983-5.973-10.734
			c-1.059,0.213-2.114,0.437-3.174,0.646c-5.086,1.003-10.166,1.98-15.119,3.092c-1.746,0.391-3.451,0.841-5.158,1.284
			c1.153-0.069,2.124-0.118,2.273-0.11c4.573,0.244,13.267,3.404,14.577,8.362c0.944,3.573-1.662,6.856-5.163,7.412
			c-3.577,0.567-7.376-1.769-9.84-4.141c-2.388-2.296-4.992-8.344-5.844-10.419c-1.735,0.507-3.473,1.011-5.132,1.58
			c-1.124,0.414-2.234,0.734-3.339,1.214c-1.104,0.451-2.197,0.898-3.28,1.34c-2.053,0.928-4.178,1.873-6.158,2.829
			c-1.383,0.655-2.688,1.304-4.005,1.954c1.733-0.41,5.143-1.14,5.435-1.169c4.557-0.453,13.628,1.354,15.676,6.057
			c1.474,3.388-0.604,7.028-3.982,8.107c-3.448,1.103-7.557-0.63-10.353-2.601c-3.078-2.171-7.172-9.087-7.678-9.955
			c-2.175,1.083-4.281,2.158-6.251,3.203c-4.356,2.298-8.186,4.454-11.394,6.323l-2.061-2.656c3.367-1.871,7.42-4.047,12.065-6.368
			c2.204-1.109,4.582-2.25,7.035-3.398c-0.179-0.62-1.178-4.15-1.695-7.563c-3.855-0.331-10.607-3.605-11.475-4.034
			c-1.218,2.103-2.38,4.161-3.447,6.12c-2.242,4.094-4.158,7.817-5.753,11.029l-2.229-2.872c1.529-2.884,3.304-6.127,5.33-9.644
			c1.227-2.141,2.581-4.405,3.992-6.716c-0.751-0.638-6.857-5.892-8.457-9.307c-1.449-3.098-2.436-7.448-0.746-10.651
			c1.654-3.135,5.603-4.542,8.681-2.496c4.271,2.839,4.458,12.087,3.214,16.495c-0.073,0.26-1.185,2.992-1.914,4.704
			c0.582-0.941,1.137-1.861,1.748-2.823c1.194-1.911,2.444-3.781,3.78-5.798c0.679-0.952,1.366-1.913,2.059-2.884
			c0.668-0.977,1.496-1.925,2.247-2.9c1.788-2.225,3.708-4.391,5.69-6.532c-1.669-1.051-7.545-4.867-9.456-7.723
			c-1.903-2.843-3.536-6.992-2.35-10.414c1.16-3.35,4.851-5.34,8.202-3.785c4.652,2.16,6.238,11.274,5.676,15.819
			c-0.034,0.283-0.805,3.499-1.262,5.257c1.202-1.277,2.395-2.558,3.653-3.81c3.63-3.617,7.418-7.164,11.18-10.72
			c1.154-1.089,2.289-2.187,3.431-3.283c-0.599-0.368-7.68-4.752-9.821-7.951c-1.903-2.842-3.537-6.993-2.351-10.414
			c1.16-3.349,4.851-5.34,8.202-3.783c4.652,2.16,6.238,11.272,5.676,15.818c-0.042,0.342-1.157,4.969-1.498,6.131
			c2.513-2.414,4.994-4.841,7.343-7.335c3.246-3.435,6.241-6.986,8.888-10.64c-0.279-0.17-7.69-4.714-9.883-7.989
			c-1.903-2.843-3.537-6.994-2.351-10.415c1.16-3.35,4.85-5.34,8.202-3.783c4.652,2.16,6.238,11.272,5.676,15.818
			c-0.044,0.356-1.246,5.333-1.528,6.22c0.156-0.218,0.343-0.426,0.497-0.645c2.777-3.937,4.971-8.099,6.836-12.097
			c1.088-2.321,1.998-4.6,2.834-6.837c-1.468-0.705-8.137-3.999-10.436-6.729c-2.204-2.617-4.284-6.563-3.48-10.092
			c0.785-3.457,4.235-5.84,7.737-4.662c4.861,1.637,7.439,10.52,7.379,15.099c-0.003,0.249-0.317,2.777-0.571,4.615
			c0.362-1.016,0.755-2.056,1.081-3.036c1.238-3.676,2.144-7.118,2.922-10.174c0.428-1.741,0.782-3.323,1.096-4.808
			c-1.079-1.442-5.354-7.311-6.123-10.73c-0.749-3.337-0.777-7.798,1.562-10.561c2.291-2.706,6.451-3.232,9.015-0.572
			c3.561,3.691,1.755,12.763-0.408,16.801c-0.188,0.349-3.738,5.469-3.795,5.395c0,0-0.053-0.07-0.066-0.087
			c-0.273,1.435-0.584,2.969-0.957,4.639c-0.713,3.079-1.547,6.55-2.709,10.266c-1.152,3.718-2.507,7.725-4.316,11.816
			c-1.808,4.104-3.92,8.328-6.658,12.398c-0.03,0.046-0.069,0.09-0.1,0.136c1.171-0.942,4.532-3.467,4.812-3.631
			c3.949-2.319,12.943-4.481,16.773-1.068c2.758,2.459,2.396,6.635-0.218,9.03c-2.67,2.445-7.127,2.593-10.492,1.974
			c-3.794-0.697-10.657-5.481-11.202-5.863c-2.643,3.853-5.669,7.592-8.938,11.208c-1.868,2.069-3.813,4.095-5.789,6.102
			c1.039-0.782,1.973-1.474,2.114-1.556c3.95-2.32,12.942-4.481,16.772-1.068c2.759,2.459,2.396,6.635-0.218,9.03
			c-2.669,2.446-7.127,2.594-10.491,1.975c-3.414-0.628-9.347-4.588-10.903-5.657c-0.766,0.762-1.523,1.531-2.292,2.29
			c-3.689,3.642-7.387,7.259-10.904,10.919c-1.241,1.289-2.415,2.604-3.593,3.916c0.922-0.693,1.706-1.269,1.834-1.345
			c3.95-2.319,12.943-4.48,16.772-1.068c2.758,2.46,2.397,6.636-0.218,9.031c-2.668,2.445-7.127,2.593-10.492,1.974
			c-3.257-0.598-8.767-4.205-10.622-5.467c-1.167,1.379-2.339,2.759-3.408,4.149c-0.708,0.966-1.457,1.846-2.115,2.855
			c-0.672,0.984-1.338,1.961-1.997,2.926c-1.2,1.908-2.451,3.868-3.576,5.757c-0.792,1.309-1.522,2.571-2.262,3.839
			c1.22-1.297,3.66-3.787,3.888-3.972c2.361-1.921,6.93-4.1,10.995-4.532c0.347-0.286,0.716-0.54,1.112-0.757
			c3.11-1.702,7.18-0.698,8.618,2.707c1.996,4.724-2.95,12.542-6.419,15.531c-0.205,0.176-2.639,1.842-4.192,2.868
			c1.005-0.464,1.975-0.926,3.015-1.39c2.05-0.933,4.124-1.804,6.352-2.751c1.092-0.419,2.194-0.841,3.309-1.268
			c1.095-0.447,2.309-0.78,3.473-1.179c2.718-0.868,5.516-1.617,8.35-2.308c-0.813-1.798-3.608-8.222-3.626-11.658
			c-0.019-3.421,0.908-7.784,3.784-9.982c2.816-2.154,6.991-1.779,8.928,1.368c2.689,4.368-1.015,12.844-3.991,16.325
			c-0.186,0.217-2.602,2.475-3.954,3.689c1.707-0.402,3.409-0.812,5.149-1.163c5.023-1.014,10.139-1.884,15.239-2.774
			c1.563-0.272,3.116-0.561,4.672-0.845c-0.296-0.637-3.783-8.201-3.805-12.05c-0.019-3.421,0.908-7.783,3.784-9.983
			c2.816-2.153,6.991-1.778,8.928,1.369c2.689,4.368-1.015,12.844-3.991,16.325c-0.224,0.262-3.706,3.506-4.631,4.287
			c3.426-0.626,6.836-1.283,10.171-2.066c4.602-1.075,9.059-2.384,13.282-3.971c-0.139-0.297-3.813-8.175-3.835-12.117
			c-0.019-3.421,0.908-7.783,3.784-9.982c2.816-2.154,6.991-1.778,8.928,1.369c2.689,4.367-1.016,12.844-3.992,16.324
			c-0.234,0.274-3.982,3.761-4.706,4.344c0.251-0.094,0.521-0.165,0.77-0.262c4.488-1.753,8.615-4.014,12.376-6.32
			c2.187-1.335,4.203-2.735,6.134-4.139c-0.835-1.397-4.581-7.825-4.992-11.37c-0.394-3.399,0.047-7.836,2.665-10.338
			c2.563-2.449,6.754-2.535,9.025,0.38c3.153,4.046,0.401,12.878-2.175,16.664c-0.14,0.207-1.795,2.142-3.022,3.535
			c0.862-0.648,1.764-1.3,2.577-1.936c3.059-2.384,5.715-4.754,8.049-6.873c1.318-1.216,2.485-2.341,3.565-3.406
			c-0.103-1.798-0.432-9.051,0.813-12.327c1.216-3.198,3.653-6.932,7.129-7.947c3.403-0.994,7.162,0.863,7.834,4.495
			c0.933,5.044-5.578,11.614-9.609,13.789c-0.349,0.187-6.134,2.499-6.142,2.406c0,0-0.005-0.088-0.006-0.108
			c-1.02,1.045-2.126,2.154-3.358,3.34c-2.293,2.174-4.903,4.61-7.923,7.069c-3.012,2.465-6.353,5.059-10.119,7.474
			c-3.772,2.424-7.863,4.784-12.393,6.668c-0.051,0.021-0.108,0.037-0.159,0.058c1.496-0.14,5.693-0.39,6.017-0.372
			c4.573,0.243,13.267,3.403,14.578,8.361c0.943,3.573-1.663,6.856-5.164,7.412C444.044,370.495,440.246,368.159,437.781,365.788z"
			/>
		<path style="fill:#919191;" d="M402.895,281.531c-0.088-0.032,3.723-4.962,3.999-5.245c3.197-3.28,11.301-7.739,15.896-5.458
			c3.309,1.642,4.063,5.767,2.173,8.767c-1.928,3.064-6.189,4.384-9.597,4.675C411.364,284.614,402.902,281.534,402.895,281.531z"/>
	</g>
	<g>
		<path style="fill:#919191;" d="M299.359,62.738c-3.201,2.427-11.999,4.342-12.006,4.344c-0.091,0.02,0.498-6.183,0.58-6.57
			c0.95-4.48,5.421-12.578,10.523-13.104c3.675-0.378,6.515,2.706,6.521,6.251C304.982,57.28,302.084,60.67,299.359,62.738z"/>
		<path style="fill:#919191;" d="M302.458,88.815c-3.581,1.437-11.938,1.058-12.603,1.025c-0.178,4.67-0.738,9.447-1.572,14.25
			c-0.473,2.747-1.036,5.498-1.635,8.25c0.46-1.215,0.881-2.299,0.956-2.445c2.101-4.07,8.551-10.7,13.61-9.859
			c3.646,0.605,5.569,4.33,4.638,7.751c-0.95,3.493-4.641,5.999-7.815,7.273c-3.222,1.293-10.352,1.112-12.24,1.04
			c-0.241,1.054-0.469,2.107-0.715,3.16c-1.174,5.049-2.368,10.082-3.387,15.055c-0.36,1.752-0.65,3.491-0.948,5.231
			c0.41-1.08,0.764-1.985,0.833-2.118c2.1-4.07,8.55-10.7,13.61-9.859c3.645,0.606,5.569,4.33,4.638,7.751
			c-0.952,3.494-4.641,5.999-7.816,7.273c-3.074,1.234-9.658,1.127-11.9,1.051c-0.25,1.79-0.504,3.582-0.666,5.328
			c-0.083,1.195-0.248,2.339-0.263,3.543c-0.042,1.192-0.083,2.372-0.125,3.541c0.003,2.253-0.007,4.579,0.051,6.777
			c0.029,1.53,0.085,2.986,0.137,4.454c0.338-1.749,1.072-5.158,1.166-5.436c1.458-4.341,6.83-11.87,11.959-11.807
			c3.695,0.047,6.161,3.437,5.758,6.959c-0.41,3.597-3.678,6.632-6.622,8.372c-3.243,1.915-11.231,2.809-12.229,2.914
			c0.094,2.428,0.21,4.789,0.354,7.015c0.307,4.915,0.7,9.293,1.087,12.985l-3.268,0.789c-0.324-3.838-0.643-8.428-0.853-13.616
			c-0.106-2.465-0.171-5.102-0.21-7.81c-0.639-0.091-4.268-0.63-7.592-1.56c-1.884,3.379-7.642,8.192-8.389,8.808
			c1.418,1.974,2.817,3.879,4.166,5.656c2.812,3.725,5.421,7.001,7.695,9.774l-3.534,0.853c-2.002-2.579-4.23-5.529-6.605-8.82
			c-1.449-1.998-2.957-4.162-4.484-6.398c-0.89,0.423-8.188,3.833-11.959,3.89c-3.42,0.05-7.791-0.837-10.018-3.693
			c-2.179-2.795-1.841-6.974,1.288-8.94c4.342-2.729,12.852,0.897,16.36,3.842c0.207,0.173,2.242,2.309,3.503,3.677
			c-0.619-0.917-1.23-1.801-1.856-2.753c-1.252-1.873-2.444-3.78-3.734-5.827c-0.589-1.01-1.183-2.031-1.784-3.061
			c-0.617-1.01-1.141-2.154-1.722-3.239c-1.295-2.544-2.482-5.184-3.619-7.87c-1.644,1.09-7.535,4.881-10.924,5.451
			c-3.374,0.568-7.828,0.354-10.461-2.132c-2.578-2.433-2.878-6.615-0.083-9.033c3.88-3.355,12.841-1.06,16.755,1.319
			c0.244,0.148,2.86,2.171,4.276,3.309c-0.671-1.62-1.349-3.234-1.975-4.895c-1.807-4.795-3.487-9.705-5.185-14.596
			c-0.519-1.499-1.055-2.986-1.585-4.476c-0.581,0.395-7.486,5.052-11.282,5.69c-3.373,0.569-7.828,0.354-10.461-2.132
			c-2.578-2.433-2.877-6.615-0.082-9.032c3.879-3.355,12.84-1.06,16.753,1.319c0.294,0.179,4.055,3.095,4.976,3.883
			c-1.169-3.282-2.364-6.542-3.673-9.707c-1.799-4.37-3.808-8.559-6.052-12.473c-0.27,0.184-7.456,5.077-11.343,5.732
			c-3.374,0.568-7.829,0.353-10.462-2.132c-2.578-2.433-2.877-6.615-0.082-9.032c3.88-3.355,12.84-1.06,16.754,1.319
			c0.307,0.187,4.351,3.326,5.044,3.947c-0.134-0.232-0.248-0.488-0.384-0.718c-2.45-4.148-5.344-7.859-8.224-11.2
			c-1.67-1.945-3.375-3.71-5.071-5.391c-1.246,1.049-6.988,5.778-10.421,6.753c-3.291,0.935-7.743,1.212-10.632-0.97
			c-2.83-2.136-3.587-6.259-1.075-8.969c3.488-3.761,12.646-2.464,16.798-0.53c0.226,0.105,2.402,1.429,3.973,2.415
			c-0.777-0.747-1.565-1.532-2.324-2.232c-2.844-2.638-5.611-4.877-8.077-6.841c-1.411-1.105-2.709-2.077-3.934-2.973
			c-1.757,0.392-8.864,1.881-12.298,1.178c-3.35-0.688-7.43-2.493-8.989-5.76c-1.526-3.2-0.298-7.209,3.18-8.455
			c4.828-1.731,12.359,3.64,15.152,7.27c0.241,0.314,3.452,5.654,3.361,5.675c0,0-0.085,0.02-0.106,0.024
			c1.196,0.838,2.467,1.752,3.837,2.777c2.514,1.914,5.337,4.099,8.249,6.685c2.918,2.577,6.014,5.458,9.002,8.787
			c3,3.334,5.984,6.993,8.572,11.162c0.03,0.046,0.054,0.1,0.083,0.147c-0.378-1.454-1.301-5.556-1.335-5.878
			c-0.494-4.553,1.228-13.642,5.913-15.732c3.374-1.505,7.033,0.54,8.145,3.907c1.133,3.439-0.562,7.563-2.507,10.378
			c-2.194,3.173-9.373,7.467-9.945,7.808c2.428,3.992,4.595,8.286,6.55,12.752c1.12,2.553,2.168,5.158,3.187,7.784
			c-0.287-1.268-0.534-2.404-0.55-2.567c-0.494-4.554,1.228-13.641,5.912-15.731c3.375-1.506,7.034,0.54,8.144,3.906
			c1.135,3.438-0.561,7.563-2.506,10.377c-1.974,2.855-8.021,6.639-9.635,7.619c0.38,1.011,0.771,2.018,1.147,3.03
			c1.806,4.859,3.587,9.716,5.48,14.426c0.666,1.661,1.383,3.271,2.095,4.884c-0.253-1.126-0.457-2.077-0.473-2.224
			c-0.493-4.554,1.228-13.641,5.912-15.731c3.375-1.505,7.035,0.539,8.146,3.907c1.134,3.437-0.562,7.563-2.508,10.377
			c-1.882,2.724-7.434,6.268-9.346,7.441c0.778,1.631,1.556,3.265,2.384,4.811c0.59,1.042,1.085,2.086,1.735,3.1
			c0.622,1.016,1.238,2.025,1.848,3.022c1.247,1.878,2.52,3.823,3.781,5.624c0.868,1.26,1.719,2.444,2.571,3.638
			c-0.682-1.645-1.951-4.893-2.026-5.176c-0.782-2.941-0.893-8.002,0.382-11.887c-0.118-0.434-0.198-0.875-0.234-1.324
			c-0.274-3.535,2.312-6.834,6.006-6.747c5.127,0.119,10.225,7.839,11.526,12.229c0.077,0.259,0.596,3.162,0.894,5
			c-0.01-1.107-0.033-2.181-0.03-3.32c-0.009-2.253,0.048-4.501,0.1-6.921c0.066-1.168,0.134-2.346,0.202-3.538
			c0.042-1.182,0.237-2.425,0.35-3.651c0.324-2.835,0.79-5.693,1.323-8.561c-1.973,0.003-8.978-0.086-12.119-1.48
			c-3.127-1.387-6.724-4.024-7.549-7.548c-0.807-3.452,1.248-7.105,4.914-7.579c5.086-0.659,11.295,6.199,13.247,10.342
			c0.122,0.259,1.188,3.389,1.741,5.12c0.334-1.721,0.659-3.442,1.054-5.173c1.138-4.997,2.445-10.019,3.727-15.034
			c0.394-1.536,0.767-3.071,1.148-4.607c-0.703,0.008-9.032,0.083-12.55-1.478c-3.127-1.387-6.724-4.024-7.549-7.549
			c-0.807-3.451,1.249-7.105,4.914-7.578c5.087-0.659,11.294,6.198,13.247,10.342c0.147,0.312,1.675,4.819,2.008,5.983
			c0.836-3.382,1.637-6.76,2.292-10.123c0.909-4.638,1.546-9.239,1.833-13.742c-0.328,0.005-9.02,0.121-12.623-1.478
			c-3.127-1.387-6.724-4.023-7.549-7.549c-0.808-3.452,1.249-7.104,4.914-7.579c5.086-0.659,11.294,6.199,13.246,10.342
			c0.154,0.326,1.795,5.175,2.029,6.074c0.017-0.267,0.064-0.543,0.077-0.81c0.244-4.812-0.123-9.503-0.681-13.879
			c-0.319-2.543-0.768-4.955-1.256-7.293c-1.617,0.188-9.016,0.964-12.417-0.116c-3.261-1.036-7.126-3.261-8.333-6.674
			c-1.181-3.342,0.462-7.2,4.051-8.073c4.984-1.213,11.907,4.922,14.302,8.825c0.131,0.212,1.216,2.517,1.982,4.207
			c-0.236-1.052-0.461-2.142-0.708-3.145c-0.917-3.768-1.989-7.163-2.962-10.162c-0.568-1.701-1.115-3.228-1.642-4.65
			c-1.682-0.644-8.43-3.322-10.907-5.803c-2.417-2.422-4.821-6.177-4.319-9.763c0.491-3.511,3.727-6.176,7.315-5.298
			c4.982,1.22,8.3,9.855,8.628,14.423c0.027,0.395-0.24,6.619-0.328,6.588c0,0-0.082-0.032-0.101-0.039
			c0.534,1.359,1.091,2.823,1.667,4.433c1.041,2.983,2.191,6.364,3.193,10.127c1.011,3.758,2.005,7.87,2.66,12.296
			c0.662,4.435,1.134,9.133,0.992,14.038c-0.002,0.055-0.011,0.113-0.013,0.168c0.487-1.422,1.982-5.351,2.131-5.64
			c2.1-4.07,8.55-10.7,13.609-9.86c3.645,0.607,5.569,4.331,4.638,7.752C309.322,85.037,305.632,87.541,302.458,88.815z"/>
		<path style="fill:#919191;" d="M211.308,86.033c-0.065,0.067-2.996-5.432-3.141-5.799c-1.678-4.261-2.417-13.482,1.549-16.735
			c2.856-2.343,6.926-1.337,8.886,1.618c2.002,3.017,1.456,7.443,0.323,10.67C217.595,79.576,211.312,86.027,211.308,86.033z"/>
	</g>
</g>
<g id="Device">
	<g>
		<polygon style="fill:#FFFFFF;" points="373.66,122.503 373.66,109.577 365.115,109.577 128.199,346.493 128.199,367.964 		"/>
		<polygon style="fill:#FFFFFF;" points="128.199,176.832 128.199,261.004 279.625,109.577 195.453,109.577 		"/>
		<polygon style="fill:#FFFFFF;" points="337.12,434.504 373.66,397.965 373.66,313.793 252.949,434.504 		"/>
	</g>
	<g>
		<path style="fill:#263238;" d="M381.076,457.839H120.782c-5.639,0-10.211-4.572-10.211-10.211V96.454
			c0-5.639,4.572-10.211,10.211-10.211h260.294c5.639,0,10.211,4.572,10.211,10.211v351.174
			C391.287,453.267,386.716,457.839,381.076,457.839z"/>
		<rect x="128.199" y="109.577" style="fill:#92E3A9;" width="245.461" height="324.927"/>
		<g>
			<polygon style="opacity:0.2;fill:#FFFFFF;" points="110.571,143.209 110.571,247.174 271.502,86.243 167.537,86.243 			"/>
			<path style="opacity:0.2;fill:#FFFFFF;" d="M391.287,98.572v-3.258c0-5.01-4.061-9.071-9.071-9.071h-5.121L110.571,352.768v26.52
				L391.287,98.572z"/>
			<polygon style="opacity:0.2;fill:#FFFFFF;" points="391.287,438.81 391.287,334.845 268.294,457.839 372.259,457.839 			"/>
		</g>
	</g>
	<g>
		
			<rect x="193.372" y="237.372" style="fill:#FFFFFF;stroke:#263238;stroke-linecap:round;stroke-linejoin:round;stroke-miterlimit:10;" width="115.114" height="19.522"/>
		
			<rect x="193.372" y="273.724" style="fill:#FFFFFF;stroke:#263238;stroke-linecap:round;stroke-linejoin:round;stroke-miterlimit:10;" width="115.114" height="19.522"/>
		<path style="fill:#263238;stroke:#263238;stroke-linecap:round;stroke-linejoin:round;stroke-miterlimit:10;" d="M277.411,329.829
			h-52.964c-2.675,0-4.843-2.168-4.843-4.843v-9.837c0-2.675,2.168-4.843,4.843-4.843h52.964c2.675,0,4.843,2.168,4.843,4.843v9.837
			C282.254,327.661,280.086,329.829,277.411,329.829z"/>
		<g>
			<path style="fill:#FFFFFF;stroke:#263238;stroke-linecap:round;stroke-linejoin:round;stroke-miterlimit:10;" d="
				M270.696,175.835c0,6.313-2.954,11.943-7.571,15.557c-3.359,2.655-7.613,4.233-12.22,4.233c-4.617,0-8.872-1.578-12.23-4.233
				c-4.617-3.615-7.571-9.245-7.571-15.557c0-10.94,8.861-19.801,19.801-19.801C261.835,156.033,270.696,164.894,270.696,175.835z"
				/>
			<g>
				
					<ellipse transform="matrix(0.7071 -0.7071 0.7071 0.7071 -48.6526 228.0067)" style="fill:#263238;stroke:#263238;stroke-linecap:round;stroke-linejoin:round;stroke-miterlimit:10;" cx="250.902" cy="172.732" rx="8.266" ry="8.266"/>
				<path style="fill:#263238;stroke:#263238;stroke-linecap:round;stroke-linejoin:round;stroke-miterlimit:10;" d="
					M263.125,191.392c-3.359,2.655-7.613,4.233-12.22,4.233c-4.617,0-8.872-1.578-12.23-4.233c1.226-5.619,6.238-9.831,12.23-9.831
					C256.888,181.561,261.899,185.773,263.125,191.392z"/>
			</g>
		</g>
	</g>
</g>
<g id="Text_1_">
	<g>
		<path style="fill:#263238;" d="M239.038,218.441v-8.635h1.578v7.547h2.089v1.087H239.038z"/>
		<path style="fill:#263238;" d="M245.765,218.558c-0.611,0-1.098-0.114-1.46-0.341c-0.363-0.227-0.622-0.554-0.778-0.981
			c-0.157-0.426-0.235-0.931-0.235-1.514v-3.23c0-0.583,0.078-1.082,0.235-1.498c0.156-0.416,0.415-0.734,0.778-0.954
			c0.363-0.22,0.849-0.33,1.46-0.33c0.625,0,1.117,0.11,1.477,0.33c0.359,0.22,0.618,0.538,0.778,0.954
			c0.16,0.415,0.24,0.915,0.24,1.498v3.241c0,0.576-0.08,1.075-0.24,1.498c-0.16,0.423-0.419,0.749-0.778,0.981
			C246.883,218.442,246.39,218.558,245.765,218.558z M245.765,217.396c0.263,0,0.456-0.057,0.581-0.171
			c0.124-0.114,0.208-0.27,0.251-0.469c0.042-0.199,0.064-0.416,0.064-0.65v-3.976c0-0.242-0.021-0.458-0.064-0.65
			c-0.043-0.192-0.126-0.343-0.251-0.453c-0.124-0.11-0.318-0.165-0.581-0.165c-0.249,0-0.437,0.055-0.565,0.165
			c-0.128,0.111-0.213,0.262-0.256,0.453c-0.043,0.192-0.064,0.409-0.064,0.65v3.976c0,0.235,0.02,0.451,0.059,0.65
			c0.039,0.199,0.123,0.355,0.251,0.469C245.318,217.339,245.509,217.396,245.765,217.396z"/>
		<path style="fill:#263238;" d="M251.585,218.558c-0.569,0-1.02-0.121-1.354-0.362c-0.334-0.242-0.574-0.585-0.72-1.029
			c-0.146-0.444-0.219-0.968-0.219-1.572v-2.899c0-0.618,0.071-1.152,0.213-1.599c0.142-0.448,0.393-0.79,0.751-1.028
			c0.359-0.238,0.854-0.357,1.487-0.357c0.589,0,1.059,0.1,1.407,0.298c0.348,0.199,0.599,0.485,0.751,0.858s0.23,0.826,0.23,1.359
			v0.448h-1.503v-0.49c0-0.277-0.02-0.515-0.059-0.714c-0.039-0.199-0.117-0.35-0.234-0.453c-0.118-0.103-0.308-0.155-0.57-0.155
			c-0.277,0-0.478,0.068-0.602,0.202c-0.125,0.135-0.203,0.313-0.234,0.533c-0.032,0.22-0.048,0.462-0.048,0.725v3.614
			c0,0.298,0.025,0.558,0.075,0.778c0.05,0.22,0.142,0.389,0.277,0.506c0.135,0.117,0.327,0.176,0.576,0.176
			c0.256,0,0.451-0.064,0.586-0.192c0.135-0.128,0.229-0.305,0.282-0.533c0.053-0.227,0.08-0.497,0.08-0.81v-0.81h-0.927v-0.992
			h2.345v4.381h-1.013l-0.117-0.853c-0.114,0.284-0.286,0.517-0.517,0.698C252.298,218.467,251.983,218.558,251.585,218.558z"/>
		<path style="fill:#263238;" d="M255.422,218.441v-8.635h1.557v8.635H255.422z"/>
		<path style="fill:#263238;" d="M258.312,218.441v-8.635h1.098l2.1,4.925v-4.925h1.3v8.635h-1.044l-2.111-5.16v5.16H258.312z"/>
	</g>
	<g>
		<g>
			<path style="fill:#CCCCCC;" d="M232.355,252.107c-0.625,0-1.105-0.124-1.439-0.373c-0.334-0.249-0.562-0.599-0.682-1.05
				c-0.121-0.451-0.181-0.979-0.181-1.583v-5.725h1.151v5.778c0,0.369,0.025,0.707,0.075,1.012c0.05,0.306,0.158,0.547,0.325,0.725
				c0.167,0.177,0.417,0.266,0.752,0.266c0.341,0,0.593-0.089,0.757-0.266c0.163-0.178,0.27-0.419,0.32-0.725
				c0.049-0.305,0.075-0.643,0.075-1.012v-5.778h1.141v5.725c0,0.604-0.061,1.132-0.181,1.583c-0.121,0.451-0.347,0.802-0.677,1.05
				C233.458,251.983,232.98,252.107,232.355,252.107z"/>
			<path style="fill:#CCCCCC;" d="M237.951,252.107c-0.497,0-0.911-0.107-1.242-0.32c-0.331-0.213-0.581-0.508-0.751-0.885
				c-0.171-0.377-0.27-0.814-0.299-1.311l1.066-0.288c0.021,0.305,0.069,0.6,0.144,0.885c0.075,0.284,0.197,0.517,0.368,0.698
				c0.171,0.181,0.409,0.272,0.714,0.272c0.313,0,0.549-0.087,0.709-0.261c0.16-0.174,0.24-0.425,0.24-0.752
				c0-0.391-0.089-0.705-0.267-0.943c-0.178-0.238-0.402-0.478-0.672-0.72l-1.45-1.279c-0.285-0.249-0.494-0.521-0.629-0.815
				c-0.135-0.295-0.203-0.659-0.203-1.093c0-0.632,0.181-1.122,0.543-1.471c0.363-0.348,0.856-0.523,1.482-0.523
				c0.341,0,0.641,0.045,0.901,0.134c0.259,0.089,0.476,0.225,0.65,0.41c0.174,0.185,0.313,0.417,0.416,0.698
				c0.103,0.281,0.172,0.609,0.208,0.986l-1.024,0.277c-0.021-0.284-0.064-0.545-0.128-0.784c-0.064-0.238-0.176-0.43-0.336-0.576
				c-0.16-0.145-0.389-0.218-0.688-0.218s-0.531,0.08-0.698,0.239c-0.167,0.16-0.25,0.396-0.25,0.709c0,0.263,0.044,0.48,0.133,0.65
				c0.089,0.17,0.232,0.345,0.432,0.522l1.46,1.279c0.327,0.285,0.615,0.624,0.864,1.018c0.249,0.395,0.373,0.862,0.373,1.402
				c0,0.426-0.089,0.794-0.266,1.104c-0.178,0.309-0.421,0.545-0.73,0.709C238.713,252.026,238.356,252.107,237.951,252.107z"/>
			<path style="fill:#CCCCCC;" d="M240.957,252.011v-8.635h3.347v0.896h-2.143v2.857h1.738v0.853h-1.738v3.166h2.164v0.864H240.957z
				"/>
			<path style="fill:#CCCCCC;" d="M245.296,252.011v-8.635h1.738c0.576,0,1.052,0.077,1.428,0.229
				c0.377,0.153,0.656,0.398,0.837,0.736c0.181,0.337,0.271,0.78,0.271,1.327c0,0.334-0.036,0.638-0.106,0.912
				c-0.071,0.273-0.185,0.505-0.341,0.693c-0.157,0.188-0.363,0.325-0.618,0.41l1.226,4.328h-1.162l-1.13-4.051H246.5v4.051H245.296
				z M246.5,247.097h0.458c0.341,0,0.618-0.042,0.831-0.128c0.213-0.085,0.37-0.231,0.469-0.437c0.1-0.206,0.149-0.494,0.149-0.864
				c0-0.505-0.092-0.869-0.277-1.093c-0.185-0.224-0.551-0.336-1.098-0.336H246.5V247.097z"/>
			<path style="fill:#CCCCCC;" d="M250.828,252.011v-8.635h0.821l2.452,5.735v-5.735h1.002v8.635h-0.767l-2.484-5.895v5.895H250.828
				z"/>
			<path style="fill:#CCCCCC;" d="M255.988,252.011l1.834-8.635h1.162l1.844,8.635h-1.14l-0.394-2.175h-1.759l-0.416,2.175H255.988z
				 M257.693,248.973h1.439l-0.725-3.891L257.693,248.973z"/>
			<path style="fill:#CCCCCC;" d="M261.68,252.011l0.16-8.635h1.183l1.524,7.004l1.535-7.004h1.172l0.16,8.635h-0.97l-0.096-6.268
				l-1.46,6.268h-0.682l-1.45-6.268l-0.096,6.268H261.68z"/>
			<path style="fill:#CCCCCC;" d="M268.737,252.011v-8.635h3.347v0.896h-2.143v2.857h1.738v0.853h-1.738v3.166h2.164v0.864H268.737z
				"/>
		</g>
		<g>
			<path style="fill:#CCCCCC;" d="M229.29,287.734v-8.635h2.143c0.519,0,0.932,0.095,1.242,0.283
				c0.309,0.188,0.535,0.461,0.677,0.815c0.142,0.356,0.213,0.785,0.213,1.29c0,0.455-0.08,0.849-0.24,1.183
				c-0.16,0.334-0.396,0.592-0.709,0.773c-0.313,0.181-0.704,0.271-1.172,0.271h-0.949v4.019H229.29z M230.494,282.851h0.554
				c0.348,0,0.622-0.039,0.821-0.117c0.199-0.078,0.341-0.215,0.426-0.41c0.085-0.196,0.128-0.471,0.128-0.827
				c0-0.412-0.03-0.728-0.091-0.948c-0.061-0.22-0.186-0.373-0.379-0.459c-0.192-0.085-0.49-0.128-0.895-0.128h-0.565V282.851z"/>
			<path style="fill:#CCCCCC;" d="M233.533,287.734l1.834-8.635h1.162l1.844,8.635h-1.14l-0.394-2.175h-1.759l-0.415,2.175H233.533z
				 M235.238,284.696h1.439l-0.725-3.891L235.238,284.696z"/>
			<path style="fill:#CCCCCC;" d="M241.282,287.829c-0.498,0-0.911-0.107-1.242-0.319c-0.331-0.213-0.581-0.508-0.751-0.885
				c-0.171-0.376-0.27-0.814-0.299-1.312l1.066-0.287c0.021,0.305,0.069,0.6,0.144,0.885c0.075,0.284,0.197,0.516,0.368,0.697
				c0.17,0.181,0.409,0.272,0.714,0.272c0.313,0,0.549-0.088,0.709-0.261c0.16-0.174,0.24-0.425,0.24-0.752
				c0-0.39-0.089-0.705-0.267-0.943c-0.178-0.239-0.402-0.478-0.671-0.72l-1.45-1.279c-0.285-0.249-0.494-0.521-0.629-0.815
				c-0.135-0.295-0.203-0.659-0.203-1.093c0-0.632,0.181-1.122,0.544-1.47c0.363-0.349,0.856-0.523,1.482-0.523
				c0.341,0,0.641,0.045,0.901,0.134c0.259,0.089,0.476,0.225,0.65,0.41c0.174,0.185,0.313,0.417,0.415,0.698
				c0.103,0.281,0.172,0.61,0.208,0.986l-1.024,0.277c-0.021-0.284-0.064-0.545-0.128-0.783c-0.064-0.238-0.176-0.43-0.336-0.576
				c-0.16-0.145-0.389-0.218-0.688-0.218c-0.298,0-0.531,0.08-0.698,0.239c-0.167,0.16-0.25,0.397-0.25,0.709
				c0,0.263,0.044,0.48,0.133,0.651c0.089,0.17,0.232,0.344,0.432,0.522l1.46,1.279c0.327,0.285,0.615,0.624,0.864,1.019
				c0.249,0.395,0.373,0.861,0.373,1.402c0,0.426-0.089,0.794-0.266,1.103c-0.178,0.309-0.421,0.545-0.73,0.709
				C242.044,287.748,241.688,287.829,241.282,287.829z"/>
			<path style="fill:#CCCCCC;" d="M246.324,287.829c-0.497,0-0.911-0.107-1.242-0.319c-0.33-0.213-0.581-0.508-0.751-0.885
				c-0.171-0.376-0.27-0.814-0.299-1.312l1.066-0.287c0.021,0.305,0.069,0.6,0.144,0.885c0.075,0.284,0.197,0.516,0.368,0.697
				c0.17,0.181,0.409,0.272,0.714,0.272c0.313,0,0.549-0.088,0.709-0.261c0.16-0.174,0.24-0.425,0.24-0.752
				c0-0.39-0.089-0.705-0.267-0.943c-0.178-0.239-0.402-0.478-0.671-0.72l-1.45-1.279c-0.285-0.249-0.494-0.521-0.629-0.815
				c-0.135-0.295-0.203-0.659-0.203-1.093c0-0.632,0.181-1.122,0.543-1.47c0.363-0.349,0.856-0.523,1.482-0.523
				c0.341,0,0.641,0.045,0.901,0.134c0.259,0.089,0.476,0.225,0.65,0.41c0.174,0.185,0.313,0.417,0.415,0.698
				c0.103,0.281,0.172,0.61,0.208,0.986l-1.024,0.277c-0.021-0.284-0.064-0.545-0.128-0.783c-0.064-0.238-0.176-0.43-0.336-0.576
				c-0.16-0.145-0.389-0.218-0.688-0.218c-0.299,0-0.531,0.08-0.698,0.239c-0.167,0.16-0.25,0.397-0.25,0.709
				c0,0.263,0.044,0.48,0.133,0.651c0.089,0.17,0.232,0.344,0.432,0.522l1.46,1.279c0.327,0.285,0.615,0.624,0.864,1.019
				c0.248,0.395,0.373,0.861,0.373,1.402c0,0.426-0.089,0.794-0.266,1.103c-0.178,0.309-0.421,0.545-0.73,0.709
				C247.086,287.748,246.729,287.829,246.324,287.829z"/>
			<path style="fill:#CCCCCC;" d="M250.45,287.734l-1.407-8.635h1.002l0.927,6.204l1.162-6.172h0.853l1.173,6.204l0.906-6.237h0.981
				l-1.386,8.635h-0.874l-1.205-6.396l-1.215,6.396H250.45z"/>
			<path style="fill:#CCCCCC;" d="M259.223,287.829c-0.583,0-1.048-0.114-1.397-0.341c-0.348-0.227-0.597-0.553-0.746-0.975
				c-0.149-0.423-0.224-0.919-0.224-1.487v-3.273c0-0.568,0.076-1.057,0.229-1.465c0.153-0.409,0.401-0.722,0.746-0.939
				c0.345-0.217,0.809-0.325,1.392-0.325c0.582,0,1.044,0.111,1.385,0.331c0.341,0.22,0.588,0.534,0.741,0.939
				c0.153,0.405,0.23,0.892,0.23,1.46v3.284c0,0.561-0.076,1.051-0.23,1.471c-0.153,0.419-0.399,0.744-0.741,0.975
				C260.267,287.714,259.805,287.829,259.223,287.829z M259.223,286.881c0.32,0,0.561-0.066,0.725-0.198
				c0.163-0.131,0.273-0.316,0.331-0.554c0.056-0.238,0.085-0.517,0.085-0.836v-3.784c0-0.32-0.029-0.595-0.085-0.827
				c-0.057-0.231-0.167-0.409-0.331-0.533c-0.163-0.124-0.405-0.187-0.725-0.187c-0.32,0-0.564,0.063-0.73,0.187
				c-0.167,0.124-0.279,0.302-0.336,0.533c-0.057,0.232-0.086,0.507-0.086,0.827v3.784c0,0.319,0.029,0.599,0.086,0.836
				c0.057,0.239,0.169,0.423,0.336,0.554C258.659,286.815,258.903,286.881,259.223,286.881z"/>
			<path style="fill:#CCCCCC;" d="M262.762,287.734v-8.635h1.738c0.576,0,1.052,0.077,1.428,0.23
				c0.377,0.153,0.656,0.398,0.837,0.736c0.181,0.338,0.272,0.78,0.272,1.326c0,0.335-0.036,0.638-0.106,0.912
				c-0.071,0.273-0.185,0.505-0.341,0.693c-0.156,0.188-0.363,0.325-0.618,0.41l1.226,4.328h-1.162l-1.13-4.051h-0.938v4.051
				H262.762z M263.966,282.819h0.458c0.341,0,0.619-0.043,0.832-0.128c0.213-0.086,0.37-0.232,0.469-0.437
				c0.1-0.207,0.149-0.495,0.149-0.864c0-0.504-0.092-0.868-0.277-1.092c-0.185-0.224-0.551-0.336-1.098-0.336h-0.533V282.819z"/>
			<path style="fill:#CCCCCC;" d="M268.294,287.734v-8.635h1.876c0.639,0,1.146,0.098,1.519,0.293
				c0.373,0.196,0.639,0.489,0.799,0.88c0.16,0.391,0.24,0.878,0.24,1.461v3.176c0,0.612-0.08,1.127-0.24,1.546
				c-0.16,0.42-0.419,0.737-0.778,0.954c-0.359,0.217-0.841,0.325-1.444,0.325H268.294z M269.499,286.87h0.682
				c0.441,0,0.753-0.085,0.938-0.255c0.185-0.171,0.297-0.42,0.336-0.747c0.039-0.326,0.059-0.721,0.059-1.183v-2.803
				c0-0.448-0.028-0.81-0.085-1.088c-0.057-0.277-0.181-0.48-0.374-0.607c-0.192-0.128-0.494-0.192-0.906-0.192h-0.651V286.87z"/>
		</g>
	</g>
	<g>
		<path style="fill:#E5E5E5;" d="M238.148,324.004c-0.519,0-0.953-0.101-1.301-0.304c-0.348-0.202-0.611-0.499-0.789-0.89
			c-0.178-0.39-0.277-0.87-0.298-1.439l1.354-0.266c0.014,0.334,0.055,0.629,0.122,0.885c0.068,0.256,0.171,0.453,0.309,0.592
			c0.139,0.139,0.322,0.208,0.549,0.208c0.256,0,0.437-0.076,0.544-0.23c0.107-0.153,0.16-0.346,0.16-0.58
			c0-0.376-0.085-0.686-0.256-0.927c-0.17-0.242-0.398-0.483-0.682-0.725l-1.087-0.959c-0.305-0.263-0.549-0.556-0.73-0.88
			c-0.181-0.323-0.272-0.723-0.272-1.199c0-0.682,0.199-1.208,0.597-1.578c0.398-0.37,0.942-0.554,1.631-0.554
			c0.405,0,0.742,0.062,1.012,0.186c0.27,0.125,0.485,0.298,0.645,0.517c0.16,0.22,0.279,0.471,0.357,0.752
			c0.079,0.28,0.128,0.577,0.15,0.89l-1.343,0.234c-0.014-0.27-0.045-0.512-0.091-0.725c-0.046-0.213-0.128-0.38-0.245-0.501
			c-0.118-0.121-0.29-0.181-0.517-0.181c-0.235,0-0.414,0.076-0.538,0.229c-0.125,0.154-0.187,0.344-0.187,0.571
			c0,0.292,0.06,0.531,0.181,0.719c0.121,0.188,0.295,0.383,0.523,0.581l1.077,0.948c0.355,0.298,0.659,0.649,0.911,1.051
			c0.252,0.402,0.379,0.887,0.379,1.455c0,0.412-0.091,0.778-0.272,1.098c-0.181,0.319-0.434,0.57-0.757,0.751
			C238.96,323.914,238.582,324.004,238.148,324.004z"/>
		<path style="fill:#E5E5E5;" d="M241.197,323.887v-8.634h1.557v8.634H241.197z"/>
		<path style="fill:#E5E5E5;" d="M246.25,324.004c-0.569,0-1.02-0.12-1.354-0.362c-0.334-0.242-0.574-0.585-0.72-1.029
			c-0.146-0.444-0.219-0.968-0.219-1.573v-2.899c0-0.619,0.071-1.151,0.213-1.599c0.142-0.448,0.393-0.79,0.751-1.029
			c0.359-0.238,0.855-0.357,1.487-0.357c0.59,0,1.059,0.1,1.407,0.298c0.348,0.199,0.599,0.486,0.751,0.859
			c0.153,0.373,0.229,0.826,0.229,1.358v0.448h-1.503v-0.49c0-0.277-0.02-0.515-0.059-0.714c-0.039-0.199-0.117-0.35-0.234-0.453
			c-0.118-0.103-0.308-0.155-0.57-0.155c-0.277,0-0.478,0.068-0.603,0.203c-0.124,0.135-0.202,0.313-0.234,0.533
			c-0.032,0.22-0.048,0.462-0.048,0.725v3.614c0,0.298,0.025,0.558,0.075,0.778c0.05,0.22,0.142,0.389,0.277,0.506
			c0.135,0.117,0.327,0.176,0.576,0.176c0.256,0,0.451-0.064,0.587-0.192c0.135-0.128,0.229-0.305,0.282-0.533
			c0.053-0.227,0.08-0.497,0.08-0.809v-0.81h-0.927v-0.991h2.345v4.381h-1.013l-0.117-0.853c-0.114,0.284-0.286,0.517-0.517,0.698
			C246.962,323.914,246.647,324.004,246.25,324.004z"/>
		<path style="fill:#E5E5E5;" d="M250.045,323.887v-8.634h1.098l2.1,4.925v-4.925h1.3v8.634h-1.045l-2.111-5.159v5.159H250.045z"/>
		<path style="fill:#E5E5E5;" d="M258.487,323.887v-8.634h1.557v8.634H258.487z"/>
		<path style="fill:#E5E5E5;" d="M261.376,323.887v-8.634h1.098l2.1,4.925v-4.925h1.3v8.634h-1.044l-2.111-5.159v5.159H261.376z"/>
	</g>
</g>
<g id="Character">
	<g>
		<g>
			<path style="fill:#FFFFFF;stroke:#263238;stroke-linecap:round;stroke-linejoin:round;stroke-miterlimit:10;" d="
				M368.806,182.729c0,0-1.267,9.975-0.792,11.401c0.475,1.425,3.325,7.125,3.483,7.6c0.158,0.475-3.325,3.483-2.692,4.908
				c0.633,1.425,4.117,3.167,4.117,3.167s8.55,9.817,9.659,9.659c1.108-0.158,5.225-2.375,5.225-2.375l2.375,5.542l23.593-9.975
				l-7.125-11.717c0,0-7.442-18.842-14.409-24.859C385.273,170.062,371.656,175.921,368.806,182.729z"/>
			<polygon style="fill:#263238;stroke:#263238;stroke-linecap:round;stroke-linejoin:round;stroke-miterlimit:10;" points="
				382.581,219.464 388.56,213.036 387.807,217.089 			"/>
			<path style="fill:none;stroke:#263238;stroke-linecap:round;stroke-linejoin:round;stroke-miterlimit:10;" d="M370.231,198.563
				c0,0,2.692,6.017,1.108,6.967s-4.75-4.75-4.75-4.75l15.042-9.5"/>
			<path style="fill:none;stroke:#263238;stroke-linecap:round;stroke-linejoin:round;stroke-miterlimit:10;" d="M375.139,209.172
				c0,0,2.375-1.108,1.425-4.117"/>
			<path style="fill:none;stroke:#263238;stroke-linecap:round;stroke-linejoin:round;stroke-miterlimit:10;" d="M369.598,194.921
				c0,0,0-2.058,2.375-1.108"/>
			
				<line style="fill:none;stroke:#263238;stroke-linecap:round;stroke-linejoin:round;stroke-miterlimit:10;" x1="371.973" y1="199.513" x2="373.873" y2="202.838"/>
		</g>
		<path style="fill:#263238;stroke:#263238;stroke-linecap:round;stroke-linejoin:round;stroke-miterlimit:10;" d="M370.231,175.762
			c0.475,0.158-0.158-6.65-2.375-4.909c-2.217,1.742-2.375,8.075-2.375,8.075s-2.85-3.483-3.483-0.633
			c-0.633,2.85,3.642,7.6,5.225,7.442c1.583-0.158,8.234-6.334,7.917-4.434c-0.317,1.9-2.375,5.225-1.108,5.859
			c1.267,0.633,4.434-0.633,4.434-0.633s0.475,7.125,2.375,6.809c1.9-0.317,3.325-3.325,4.75-1.425
			c1.425,1.9,11.242,11.559,11.875,11.559c0.633,0,9.184-2.533,9.184-2.533s0.633-9.817,1.108-16.309
			c0.475-6.492-3.325-15.201-8.867-18.684c-5.542-3.483-13.776-2.692-17.734,0S370.231,175.762,370.231,175.762z"/>
		<path style="fill:#FFFFFF;stroke:#263238;stroke-linecap:round;stroke-linejoin:round;stroke-miterlimit:10;" d="M381.79,196.346
			c0,0-1.267-9.025,1.9-7.442c3.167,1.583,5.7,9.975,4.909,11.876c-0.792,1.9-2.692,0.633-2.692,0.633"/>
		<path style="fill:#92E3A9;stroke:#263238;stroke-linecap:round;stroke-linejoin:round;stroke-miterlimit:10;" d="M387.21,221.908
			l-3.472,9.837c0,0,10.608-5.786,20.831-9.258c10.223-3.472,16.973-4.436,16.973-4.436l-5.208-7.715
			C416.334,210.336,394.925,212.457,387.21,221.908z"/>
		<path style="fill:#263238;stroke:#263238;stroke-linecap:round;stroke-linejoin:round;stroke-miterlimit:10;" d="M332.855,244.929
			l21.869,36.695c0.164,0.274,0.487,0.41,0.797,0.334l20.527-5.042c0.47-0.115,0.698-0.649,0.456-1.068l-18.968-32.915
			c-0.137-0.237-0.395-0.377-0.669-0.363l-23.428,1.262C332.895,243.861,332.576,244.46,332.855,244.929z"/>
		<polygon style="fill:#878787;stroke:#263238;stroke-linecap:round;stroke-linejoin:round;stroke-miterlimit:10;" points="
			335.277,246.384 354.956,279.404 373.968,274.735 356.957,245.216 		"/>
		<path style="fill:#FFFFFF;stroke:#263238;stroke-linecap:round;stroke-linejoin:round;stroke-miterlimit:10;" d="M371.201,252.383
			c0,0-5.786,3.086-7.908,4.05c-2.122,0.964-3.279,1.736-1.929,2.893c1.35,1.157,5.979-1.543,5.979-1.543l3.665-1.543
			L371.201,252.383z"/>
		<g>
			<path style="fill:#FFFFFF;stroke:#263238;stroke-linecap:round;stroke-linejoin:round;stroke-miterlimit:10;" d="
				M418.252,459.799l1.308,10.029c0,0-1.308,2.18-5.451,2.616c-4.142,0.436-7.195,1.09-7.195,1.09l1.138-9.753L418.252,459.799z"/>
			<path style="fill:#FFFFFF;stroke:#263238;stroke-linecap:round;stroke-linejoin:round;stroke-miterlimit:10;" d="M419.56,469.828
				l-0.189-1.453c-3.901,1.517-8.621,2.005-12.103,2.136l-0.353,3.023c0,0,3.052-0.654,7.195-1.09S419.56,469.828,419.56,469.828z"
				/>
		</g>
		<g>
			<path style="fill:#FFFFFF;stroke:#263238;stroke-linecap:round;stroke-linejoin:round;stroke-miterlimit:10;" d="
				M388.601,455.657l-11.337,6.977c0,0-5.014,1.308-7.849,1.526c-2.834,0.218-2.834,3.27-1.526,4.361
				c1.308,1.09,5.645,2.938,11.119,4.142c10.901,2.398,26.599,1.526,27.907,0.872c1.308-0.654,2.398-1.744,2.616-2.616
				c0.218-0.872,0-9.375,0-9.375S392.961,459.581,388.601,455.657z"/>
			<path style="fill:#FFFFFF;stroke:#263238;stroke-linecap:round;stroke-linejoin:round;stroke-miterlimit:10;" d="
				M377.482,469.828c-6.392-1.94-9.016-3.521-10.068-4.588c-0.664,1.049-0.372,2.574,0.475,3.28
				c1.308,1.09,5.645,2.938,11.119,4.143c10.901,2.398,26.599,1.526,27.907,0.872c1.224-0.612,2.247-1.603,2.553-2.442
				C402.178,471.716,386.605,472.598,377.482,469.828z"/>
		</g>
		<path style="fill:#92E3A9;stroke:#263238;stroke-linecap:round;stroke-linejoin:round;stroke-miterlimit:10;" d="M424.178,317.456
			c0,0,0,10.751-3.583,16.524c-3.583,5.773-8.56,10.95-8.56,11.746s-4.778,38.025-4.778,40.016c0,1.991-0.199,7.764,0.995,10.75
			c1.195,2.986,5.773,21.899,8.561,38.821c2.787,16.922,1.593,21.103,1.593,21.103s1.195,2.986,1.195,3.783
			c0,0.796-0.597,2.986-0.597,2.986s-3.185,0.995-6.172,0.995c-2.986,0-4.778-0.398-4.778-0.398s-0.199-3.185,0.398-4.778
			c0.597-1.593,0.199-5.973,0.199-6.968s-7.565-52.558-7.565-56.54c0-3.982-0.199-46.187-0.199-46.187l-1.792-29.265
			C399.094,320.044,409.446,319.646,424.178,317.456z"/>
		<g>
			<path style="fill:#92E3A9;stroke:#263238;stroke-linecap:round;stroke-linejoin:round;stroke-miterlimit:10;" d="
				M410.043,339.952c0,0-4.778,8.76-5.176,9.556c-0.398,0.796-0.398,7.764-0.398,9.357c0,1.593-0.995,31.853-0.796,36.034
				c0.199,4.181,3.384,17.121,4.38,24.885c0.995,7.764,2.787,30.46,2.986,31.057c0.199,0.597,0.996,3.384,0.597,5.176
				c-0.398,1.792-1.394,3.783-1.394,3.783s0.597,3.384,0.199,4.38c-0.398,0.995-5.773,1.991-13.339-0.199
				c-7.565-2.19-10.75-6.968-10.75-6.968s0.398-0.995,0.398-2.986c0-1.991,1.991-2.389,1.991-2.389l-3.783-26.677
				c0,0-3.583-8.361-3.783-9.755c-0.199-1.394,0.796-4.778,0.597-6.171c-0.199-1.394-2.588-4.38-2.787-5.773
				c-0.199-1.394-6.769-23.691-7.167-43.4s0.346-38.042,0.346-38.042s5.029,2.605,20.558,1.61c15.528-0.995,21.7-1.194,29.066-4.38"
				/>
			<g>
				<path style="fill:none;stroke:#263238;stroke-linecap:round;stroke-linejoin:round;stroke-miterlimit:10;" d="M393.65,439.34
					l1.274,13.265c0,0-1.744,1.09-1.09,3.27c0.654,2.18,1.09,3.488,1.09,3.488"/>
				<path style="fill:none;stroke:#263238;stroke-linecap:round;stroke-linejoin:round;stroke-miterlimit:10;" d="M382.224,372.838
					c0.151,0.964,0.314,1.9,0.49,2.804c3.488,17.878,7.413,31.395,7.631,32.049c0.218,0.654-2.616,3.052-1.526,4.361
					c1.09,1.308,2.398,1.962,2.398,1.962l2.004,20.86"/>
				<path style="fill:none;stroke:#263238;stroke-linecap:round;stroke-linejoin:round;stroke-miterlimit:10;" d="M380.97,327.241
					c0,0-1.268,22.19,0.521,39.811"/>
				<path style="fill:none;stroke:#263238;stroke-linecap:round;stroke-linejoin:round;stroke-miterlimit:10;" d="M375.956,326.805
					c0,0-0.654,7.849,3.706,11.773"/>
				<path style="fill:none;stroke:#263238;stroke-linecap:round;stroke-linejoin:round;stroke-miterlimit:10;" d="M409.313,327.896
					c-5.015,2.18-15.916,2.398-15.916,2.398l1.308,3.27c0,0,7.631-0.436,10.683-1.526"/>
			</g>
		</g>
		<g>
			<g>
				<path style="fill:#C2C2C2;stroke:#263238;stroke-linecap:round;stroke-linejoin:round;stroke-miterlimit:10;" d="
					M372.165,321.819c0,0,2.7,5.015,23.724,3.857c21.024-1.157,29.124-4.629,29.317-6.365c0.193-1.736-0.386-5.786-0.386-5.786
					S385.088,316.418,372.165,321.819z"/>
				<path style="fill:#C2C2C2;stroke:#263238;stroke-linecap:round;stroke-linejoin:round;stroke-miterlimit:10;" d="
					M383.738,231.745c0,0-11.765,5.4-11.958,7.136s-6.365,48.412-6.365,48.412l-9.258-10.801c0,0,0.193-3.858-0.386-5.401
					c-0.579-1.543-0.772-2.7-2.122-3.279c-1.35-0.579-5.786-1.736-6.944-2.7c-1.157-0.964-4.436-4.05-5.208-2.893
					c-0.772,1.157-2.315,3.086-1.929,4.436c0.386,1.35,1.929,4.05,1.929,4.822s0,6.558,2.507,9.258
					c2.507,2.7,6.172,3.858,6.172,3.858s5.979,15.816,8.101,18.902c2.122,3.086,10.994,10.222,10.994,10.222
					s-2.122,5.015-1.543,5.401c0.579,0.386,3.279,4.436,4.05,4.436c0.772,0,23.917-3.857,25.653-4.05
					c1.736-0.193,19.095,0,20.445-0.579c1.35-0.579,5.786-2.507,6.751-3.279c0.964-0.771,2.507-2.122,1.736-5.208
					c-0.771-3.086-1.543-24.881-1.543-26.81c0-1.929,3.858-17.166,5.593-23.145c1.736-5.979,5.015-23.531,5.208-26.424
					c0.193-2.893-2.122-9.644-2.893-10.03c-0.772-0.386-11.187-5.979-11.187-5.979S404.376,219.401,383.738,231.745z"/>
				<path style="fill:none;stroke:#263238;stroke-linecap:round;stroke-linejoin:round;stroke-miterlimit:10;" d="M369.272,313.718
					c0,0,6.751-1.157,7.908-2.122c1.157-0.964,11.38-30.86,11.766-32.596c0.386-1.736,0.964-22.759,0.964-22.759"/>
				
					<line style="fill:none;stroke:#263238;stroke-linecap:round;stroke-linejoin:round;stroke-miterlimit:10;" x1="389.717" y1="269.356" x2="392.996" y2="257.591"/>
				<path style="fill:none;stroke:#263238;stroke-linecap:round;stroke-linejoin:round;stroke-miterlimit:10;" d="M364.643,298.866
					c-0.579-3.279,0.772-11.573,0.772-11.573s1.35,8.101,3.858,11.38"/>
				<path style="fill:#FFFFFF;stroke:#263238;stroke-linecap:round;stroke-linejoin:round;stroke-miterlimit:10;" d="
					M356.157,276.492c0,0,0.193-3.858-0.386-5.401s-0.772-2.7-2.122-3.279c-1.35-0.579-5.786-1.736-6.944-2.7
					c-1.157-0.964-4.436-4.05-5.208-2.893c-0.772,1.157-2.315,3.086-1.929,4.436c0.386,1.35,1.929,4.05,1.929,4.822
					s0,6.558,2.507,9.258c2.507,2.7,6.172,3.858,6.172,3.858s0.335,0.886,0.871,2.269c1.175-2.84,3.56-6.331,8.22-6.74
					L356.157,276.492z"/>
				<path style="fill:none;stroke:#263238;stroke-linecap:round;stroke-linejoin:round;stroke-miterlimit:10;" d="M353.071,290.572
					c0,0,1.35-4.822,6.944-6.751"/>
				
					<line style="fill:none;stroke:#263238;stroke-linecap:round;stroke-linejoin:round;stroke-miterlimit:10;" x1="397.432" y1="319.504" x2="416.913" y2="313.718"/>
			</g>
			<path style="fill:none;stroke:#263238;stroke-linecap:round;stroke-linejoin:round;stroke-miterlimit:10;" d="M420.573,268.335
				c0,0-12.33,13.33-22.328,20.661"/>
			<path style="fill:none;stroke:#263238;stroke-linecap:round;stroke-linejoin:round;stroke-miterlimit:10;" d="M414.242,278.332
				c0,0-9.331,9.331-13.33,12.33"/>
		</g>
	</g>
</g>
</svg>
